<?xml version="1.0" encoding="UTF-8"?><svg id="Layer_1" xmlns="http://www.w3.org/2000/svg" xmlns:xlink="http://www.w3.org/1999/xlink" viewBox="0 0 512 512"><defs><style>.cls-1,.cls-2{fill:#fff;}.cls-2{font-family:Pixelmania, Pixelmania;font-size:38.15px;}.cls-3{fill:url(#linear-gradient);}</style><linearGradient id="linear-gradient" x1="255.82" y1=".31" x2="255.82" y2="512.31" gradientUnits="userSpaceOnUse"><stop offset="0" stop-color="#753a88"/><stop offset="1" stop-color="#ca2b5f"/></linearGradient></defs><g id="layer1"><rect id="rect4136" class="cls-3" x="-.18" y=".31" width="512" height="512"/></g><g id="flowRoot2985"><path id="path2996" class="cls-1" d="m336.42,309.67l-35.52-99.5-2.07-41.53-12.17-.02-25.83-72.77h141.29v72.79h-32.46l.63,141.03h-33.87Z"/><path id="path2994" class="cls-1" d="m241,95.93l-69.11.46-20.42,62.2h10.63s-15.08,44.32-15.08,44.32l-37.13,106.75h207.24l-19.03-54.3-19.03-53.14-19.03-53.14-19.03-53.14Zm-26.56,70.47c10-.07,19.87.36,19.49,1.39l-14.16,38.76s23.58-.87,23.67,0c.22,2.12-42,68.92-42,68.92l2.09-45.25s-16.6.82-17.41-.23c-1.18-1.54,7.22-58.47,7.89-61.5.33-1.46,10.42-2.02,20.42-2.09Z"/></g><text class="cls-2" transform="translate(108 394.33)"><tspan x="0" y="0">GAMES</tspan></text></svg>